<?xml version="1.0" encoding="UTF-8" standalone="no"?>
<svg
   xmlns:dc="http://purl.org/dc/elements/1.1/"
   xmlns:cc="http://creativecommons.org/ns#"
   xmlns:rdf="http://www.w3.org/1999/02/22-rdf-syntax-ns#"
   xmlns:svg="http://www.w3.org/2000/svg"
   xmlns="http://www.w3.org/2000/svg"
   xmlns:sodipodi="http://sodipodi.sourceforge.net/DTD/sodipodi-0.dtd"
   xmlns:inkscape="http://www.inkscape.org/namespaces/inkscape"
   height="16"
   viewBox="0 0 16 16"
   width="16"
   version="1.1"
   id="svg933"
   sodipodi:docname="sound_lib_2D.svg"
   inkscape:version="0.92.5 (2060ec1f9f, 2020-04-08)">
  <metadata
     id="metadata939">
    <rdf:RDF>
      <cc:Work
         rdf:about="">
        <dc:format>image/svg+xml</dc:format>
        <dc:type
           rdf:resource="http://purl.org/dc/dcmitype/StillImage" />
      </cc:Work>
    </rdf:RDF>
  </metadata>
  <defs
     id="defs937" />
  <sodipodi:namedview
     pagecolor="#ffffff"
     bordercolor="#666666"
     borderopacity="1"
     objecttolerance="10"
     gridtolerance="10"
     guidetolerance="10"
     inkscape:pageopacity="0"
     inkscape:pageshadow="2"
     inkscape:window-width="1920"
     inkscape:window-height="1017"
     id="namedview935"
     showgrid="false"
     inkscape:zoom="14.75"
     inkscape:cx="-0.033898305"
     inkscape:cy="5.2881356"
     inkscape:window-x="0"
     inkscape:window-y="27"
     inkscape:window-maximized="1"
     inkscape:current-layer="svg933" />
  <path
     d="M 3.0429847,9.6362891 A 1.9921373,1.9921373 0 0 0 1.0508474,11.628425 1.9921373,1.9921373 0 0 0 3.0429847,13.620563 1.9921373,1.9921373 0 0 0 5.0351221,11.628425 1.9921373,1.9921373 0 0 0 3.0429847,9.6362891 Z m 0,0.6640449 a 1.3280916,1.3280916 0 0 1 1.3280916,1.328091 1.3280916,1.3280916 0 0 1 -1.3280916,1.328092 1.3280916,1.3280916 0 0 1 -1.3280915,-1.328092 1.3280916,1.3280916 0 0 1 1.3280915,-1.328091 z"
     id="path863"
     inkscape:connector-curvature="0"
     style="fill:#8da5f3;stroke-width:0.33202288;fill-opacity:1" />
  <path
     style="fill:#8da5f3;stroke-width:0.33202288;fill-opacity:1"
     inkscape:connector-curvature="0"
     id="path873"
     d="M 11.05871,9.7250241 A 1.9921373,1.9921373 0 0 0 9.066573,11.71716 1.9921373,1.9921373 0 0 0 11.05871,13.709298 1.9921373,1.9921373 0 0 0 13.050847,11.71716 1.9921373,1.9921373 0 0 0 11.05871,9.7250241 Z m 0,0.6640449 A 1.3280916,1.3280916 0 0 1 12.386801,11.71716 1.3280916,1.3280916 0 0 1 11.05871,13.045252 1.3280916,1.3280916 0 0 1 9.7306188,11.71716 1.3280916,1.3280916 0 0 1 11.05871,10.389069 Z" />
  <rect
     style="fill:#8da5f3;fill-opacity:1;stroke:none;stroke-width:0.97219408;stroke-opacity:1"
     id="rect875"
     width="8.6664486"
     height="3.1057239"
     x="3.9016926"
     y="1.7483295" />
  <path
     style="fill:#8da5f3;fill-opacity:1;stroke:#8da5f3;stroke-width:1.00672722;stroke-linecap:round;stroke-linejoin:miter;stroke-miterlimit:4;stroke-dasharray:none;stroke-opacity:1"
     d="M 4.4045239,4.7364522 V 10.35491"
     id="path879"
     inkscape:connector-curvature="0" />
  <path
     inkscape:connector-curvature="0"
     id="path891"
     d="M 12.094887,4.7993804 V 10.084934"
     style="fill:none;fill-opacity:1;stroke:#8da5f3;stroke-width:0.97494364px;stroke-linecap:round;stroke-linejoin:miter;stroke-opacity:1" />
</svg>
