<?xml version="1.0" encoding="UTF-8" standalone="no"?>
<svg
   xmlns:dc="http://purl.org/dc/elements/1.1/"
   xmlns:cc="http://creativecommons.org/ns#"
   xmlns:rdf="http://www.w3.org/1999/02/22-rdf-syntax-ns#"
   xmlns:svg="http://www.w3.org/2000/svg"
   xmlns="http://www.w3.org/2000/svg"
   xmlns:sodipodi="http://sodipodi.sourceforge.net/DTD/sodipodi-0.dtd"
   xmlns:inkscape="http://www.inkscape.org/namespaces/inkscape"
   height="16"
   viewBox="0 0 16 16"
   width="16"
   version="1.1"
   id="svg865"
   sodipodi:docname="sound_lib.svg"
   inkscape:version="0.92.5 (2060ec1f9f, 2020-04-08)">
  <metadata
     id="metadata871">
    <rdf:RDF>
      <cc:Work
         rdf:about="">
        <dc:format>image/svg+xml</dc:format>
        <dc:type
           rdf:resource="http://purl.org/dc/dcmitype/StillImage" />
      </cc:Work>
    </rdf:RDF>
  </metadata>
  <defs
     id="defs869" />
  <sodipodi:namedview
     pagecolor="#ffffff"
     bordercolor="#666666"
     borderopacity="1"
     objecttolerance="10"
     gridtolerance="10"
     guidetolerance="10"
     inkscape:pageopacity="0"
     inkscape:pageshadow="2"
     inkscape:window-width="1920"
     inkscape:window-height="1017"
     id="namedview867"
     showgrid="false"
     inkscape:zoom="33.808543"
     inkscape:cx="7.9757478"
     inkscape:cy="7.5073582"
     inkscape:window-x="0"
     inkscape:window-y="27"
     inkscape:window-maximized="1"
     inkscape:current-layer="svg865" />
  <path
     d="M 3.785089,9.926991 A 1.9921373,1.9921373 0 0 0 1.7929517,11.919127 1.9921373,1.9921373 0 0 0 3.785089,13.911265 1.9921373,1.9921373 0 0 0 5.7772264,11.919127 1.9921373,1.9921373 0 0 0 3.785089,9.926991 Z m 0,0.664045 A 1.3280916,1.3280916 0 0 1 5.1131806,11.919127 1.3280916,1.3280916 0 0 1 3.785089,13.247219 1.3280916,1.3280916 0 0 1 2.4569975,11.919127 1.3280916,1.3280916 0 0 1 3.785089,10.591036 Z"
     id="path863"
     inkscape:connector-curvature="0"
     style="fill:#e0e0e0;stroke-width:0.33202288" />
  <path
     style="fill:#e0e0e0;stroke-width:0.33202288"
     inkscape:connector-curvature="0"
     id="path873"
     d="M 11.800815,10.015726 A 1.9921373,1.9921373 0 0 0 9.8086772,12.007862 1.9921373,1.9921373 0 0 0 11.800815,14 1.9921373,1.9921373 0 0 0 13.792952,12.007862 1.9921373,1.9921373 0 0 0 11.800815,10.015726 Z m 0,0.664045 a 1.3280916,1.3280916 0 0 1 1.328091,1.328091 1.3280916,1.3280916 0 0 1 -1.328091,1.328092 1.3280916,1.3280916 0 0 1 -1.328092,-1.328092 1.3280916,1.3280916 0 0 1 1.328092,-1.328091 z" />
  <rect
     style="fill:#e0e0e0;fill-opacity:1;stroke:none;stroke-width:0.97219408;stroke-opacity:1"
     id="rect875"
     width="8.6664486"
     height="3.1057239"
     x="4.6437969"
     y="2.0390315" />
  <path
     style="fill:#e0e0e0;fill-opacity:1;stroke:#e0e0e0;stroke-width:1.00672722;stroke-linecap:round;stroke-linejoin:miter;stroke-miterlimit:4;stroke-dasharray:none;stroke-opacity:1"
     d="M 5.1466282,5.0271541 V 10.645612"
     id="path879"
     inkscape:connector-curvature="0" />
  <path
     inkscape:connector-curvature="0"
     id="path891"
     d="M 12.836992,5.0900823 V 10.375636"
     style="fill:#e0e0e0;fill-opacity:1;stroke:#e0e0e0;stroke-width:0.97494364px;stroke-linecap:round;stroke-linejoin:miter;stroke-opacity:1" />
</svg>
